<?xml version="1.0" encoding="utf-8"?>
<!-- Generator: Adobe Illustrator 22.0.1, SVG Export Plug-In . SVG Version: 6.00 Build 0)  -->
<svg version="1.1" xmlns="http://www.w3.org/2000/svg" xmlns:xlink="http://www.w3.org/1999/xlink" x="0px" y="0px"
	 viewBox="0 0 400 400" style="enable-background:new 0 0 400 400;" xml:space="preserve">
<style type="text/css">
	.st0{display:none;}
	.st1{display:inline;}
	.st2{fill:#CCCCCC;stroke:#000000;stroke-width:5;stroke-linejoin:bevel;stroke-miterlimit:10;}
	.st3{fill:#CCCCCC;stroke:#000000;stroke-width:5.011;stroke-linejoin:round;stroke-miterlimit:10;}
	.st4{fill:#73B6FF;fill-opacity:0.61;}
	.st5{fill:#F9ECB9;}
	.st6{fill:#C69D4A;}
	.st7{fill:#E0B568;}
	.st8{fill:none;stroke:#000000;stroke-width:3.8601;stroke-miterlimit:10;}
	.st9{fill:#F9ECB9;stroke:#000000;stroke-width:3.8601;stroke-miterlimit:10;}
	.st10{fill:#FFFEFD;}
	.st11{fill:#CCCCCC;stroke:#000000;stroke-width:5;stroke-linejoin:round;stroke-miterlimit:10;}
	.st12{fill:#4AB2FF;fill-opacity:0.61;}
	.st13{fill:#CCCCCC;stroke:#000000;stroke-width:4.7961;stroke-linejoin:round;stroke-miterlimit:10;}
	.st14{fill:#CCCCCC;stroke:#000000;stroke-width:5.2336;stroke-linejoin:bevel;stroke-miterlimit:10;}
	.st15{fill:none;stroke:#000000;stroke-width:5.2336;stroke-linecap:round;stroke-linejoin:bevel;stroke-miterlimit:10;}
	.st16{fill:#B7B7B7;}
	.st17{fill:#6D6D6D;}
	.st18{fill:#919191;}
	.st19{fill:#00B1E9;}
	.st20{fill:#BCECF7;}
</style>
<g id="Layer_1" class="st0">
	<g id="burnerPlate" class="st1">
		<polygon class="st2" points="353,328.9 47,328.9 74,293.6 326,293.6 		"/>
		<rect x="47" y="328.9" class="st2" width="306" height="50.6"/>
	</g>
	<g id="Layer_12" class="st1">
		<path class="st3" d="M94.8,123.9c0,0,87.8-19.4,210.5,0c6.1,1-37.6,31.2-37.6,31.2l-54,147l-96.6-1.3l-1.5-162.3
			C115.5,138.3,94.2,143.1,94.8,123.9"/>
	</g>
	<g id="potBack" class="st1">
		<g>
			<path class="st4" d="M213.6,196.8c-1.4,0-2.8,0-4.3,0C210.8,196.9,212.2,196.9,213.6,196.8z"/>
			<path class="st4" d="M209.1,196.9c-1.3,0-2.7,0-4,0C206.4,196.9,207.8,196.9,209.1,196.9z"/>
			<path class="st4" d="M204.5,196.9c-1.5,0-3,0-4.5,0C201.5,196.9,203,196.9,204.5,196.9z"/>
			<path class="st4" d="M200,194c-46.7,0-84.5,2.7-84.5,6H218v5.8c38-0.6,66.5-3,66.5-5.8C284.5,196.6,246.7,194,200,194z"/>
			<path class="st4" d="M218,196.8c-1.4,0-2.9,0-4.4,0.1C215.1,196.8,216.5,196.8,218,196.8z"/>
		</g>
	</g>
	<g id="milledGrains" class="st1">
		<path class="st5" d="M213.1,104.1c-11.1,0.9-34.4-0.2-45.8,0c-6.6,0.1-21.8-6.4-25.7-19.1c-4.2-13.8,8.9-58.5,8.9-58.5
			c0-6.6,6.5-10.5,13.1-10.5h49.2c6.6,0,15,0.4,15,7c0,0,15.7,51.9,9.8,68.6C235.4,97.8,219.7,103.6,213.1,104.1z"/>
		<path class="st6" d="M234.1,51.7c0,1.7,14.4,41.4-8.3,49.8c-8,3-62,4.8-71.9-1.9c-22-15-8.1-45-8.1-47.3c0-2.2,15.3,2.6,46-0.2
			C221.6,49.5,234.1,49.5,234.1,51.7z"/>
		<path class="st7" d="M234.1,51.7c0,2.2-12.8,9.5-42.8,9.5s-45.6-6.6-45.6-8.8s15.3,2.6,46-0.2C221.6,49.5,234.1,49.5,234.1,51.7z"
			/>
		<path class="st8" d="M213.1,104.1c-11.1,0.9-34.4-0.2-45.8,0c-6.6,0.1-21.8-6.4-25.7-19.1c-4.2-13.8,8.9-58.5,8.9-58.5
			c0-6.6,6.5-10.5,13.1-10.5h49.2c6.6,0,15,0.4,15,7c0,0,15.7,51.9,9.8,68.6C235.4,97.8,219.7,103.6,213.1,104.1z"/>
		<path class="st9" d="M223.6,14.9c2.6,2.3,8.8,12.3-12.9,12.3c-7.8,0-12.3,5.6-22.2,4.5c-8.3-0.9-27.4-2.6-33.5-3.9
			c-6.8-1.4-3.6-8.1,0-10.7c5-3.5,6.1,1.1,19.5-1c8.4-1.3,18.1-0.6,25.1-0.8C210.5,15.1,215.9,8.3,223.6,14.9z"/>
	</g>
	<g id="bubble" class="st1">
		<circle class="st10" cx="143.8" cy="261.3" r="6.3"/>
	</g>
	<g id="bubble_copy" class="st1">
		<circle class="st10" cx="188.8" cy="258.3" r="6.3"/>
	</g>
	<g id="bubble_copy_4" class="st1">
	</g>
	<g id="bubble_copy_3" class="st1">
		<circle class="st10" cx="178" cy="271.5" r="3.8"/>
		<circle class="st10" cx="200" cy="277.8" r="3.8"/>
		<circle class="st10" cx="159.1" cy="269.3" r="3.8"/>
	</g>
	<g id="bubble_copy_2" class="st1">
		<circle class="st10" cx="166.8" cy="251" r="6.3"/>
	</g>
	<g id="potFront" class="st1">
		<path class="st11" d="M325.8,190.9c0,0-10.3-2.7-14.4-2.7s-14.4,2.7-14.4,2.7v-18.1h28.8V190.9z M74.3,190.9
			c0,0,10.3-2.7,14.4-2.7s14.4,2.7,14.4,2.7v-18.1H74.3V190.9z"/>
		<path class="st12" d="M200,205.9c-46.7,0-84.5-2.7-84.5-6h-2v104H218v-98.1C212.2,205.9,206.2,205.9,200,205.9z"/>
		<path class="st4" d="M200,205.9c6.2,0,12.2,0,18-0.1V200H115.5C115.5,203.2,153.3,205.9,200,205.9z"/>
		<path class="st13" d="M207.7,134.2v158.7h-69.1c-6.2,0-11.2-6.4-11.2-14.1v-146v-3.5c-20-1.4-32.4-3.3-32.5-5.5
			c-2,0.3-3.5,9.2-3.5,11.1c0,1.9,9.2,11.1,11.1,11.1h0.9v152.3c0,10,8.2,18.1,18.1,18.1H279c10,0,18.1-8.2,18.1-18.1V146h0.9
			c2,0,11.1-9.2,11.1-11.1c0-1.9-1.7-11.1-3.7-11.1c0,4-43,7.3-97.6,7.6L207.7,134.2z"/>
	</g>
	<g id="dial_1_" class="st1">
		<g id="dial_2_">
			<circle class="st14" cx="317.1" cy="354.2" r="18.4"/>
			<line class="st15" x1="317.1" y1="342.5" x2="317.1" y2="351.7"/>
		</g>
	</g>
</g>
<g id="Layer_2" class="st0">
	
		<image style="display:inline;overflow:visible;" width="218" height="231" xlink:href="847A85B9.jpg"  transform="matrix(1.8729 0 0 1.8729 0.3491 -34.475)">
	</image>
</g>
<g id="Layer_5">
	<polygon class="st16" points="349,339.5 51,339.5 87,267.2 313,267.2 	"/>
	<ellipse class="st17" cx="200" cy="294.7" rx="114.8" ry="35.1"/>
	<polygon class="st18" points="358,388.3 42,388.3 51,339.5 349,339.5 	"/>
</g>
<g id="Layer_3">
	<path class="st18" d="M304.3,126.4H95.7c0,0,0,123.1,0,164.1c0,11.1,46.7,26.8,104.3,26.8s104.3-13.7,104.3-24.8
		C304.3,252.5,304.3,126.4,304.3,126.4z"/>
	<ellipse class="st16" cx="200" cy="126.4" rx="104.3" ry="49.4"/>
	<ellipse class="st17" cx="200" cy="126.4" rx="93" ry="42.1"/>
	<path class="st19" d="M200,102.6c-45.3,0-82.9,16.1-90.2,34.1c7.5,16.3,44.9,31.8,90.2,31.8s82.3-15,90.2-31.8
		C282.9,118.7,245.3,102.6,200,102.6z"/>
	<path class="st17" d="M98.4,150.4c-13.6-0.9-22,4.5-29.5-2.3s23.4-3.8,26.8-7.4c0-3.7,0-9.3,0-13.3c-4,0-13.9,1.1-17.9,1.3
		c-8.4,0.3-22.4,2-16.3,22.6c5.4,18,26.9,12.4,35.6,17.4C101.1,171.1,104.2,150.8,98.4,150.4z"/>
	<path class="st17" d="M301.6,150.4c13.6-0.9,22,4.5,29.5-2.3s-23.4-3.8-26.8-7.4c0-3.7,0-9.3,0-13.3c4,0,13.9,1.1,17.9,1.3
		c8.4,0.3,22.4,2,16.3,22.6c-5.4,18-26.9,12.4-35.6,17.4C298.9,171.1,295.8,150.8,301.6,150.4z"/>
	<path class="st16" d="M200,77.1c-57.6,0-104.3,22.1-104.3,49.4c0,27.3,46.7,49.4,104.3,49.4s104.3-22.1,104.3-49.4
		C304.3,99.2,257.6,77.1,200,77.1z M200,168.5c-51.4,0-93-18.8-93-42.1c0-23.2,41.6-42.1,93-42.1s93,18.8,93,42.1
		C293,149.7,251.4,168.5,200,168.5z"/>
</g>
<g id="Layer_4">
	<path class="st20" d="M206.6,119.7c0,2.2-6.3,3.3-14.2,3.3c-7.8,0-14.2-1.1-14.2-3.3c0-5.7,6.3-10.3,14.2-10.3
		C200.3,109.3,206.6,114,206.6,119.7z"/>
	<path class="st20" d="M252.8,125.2c0,2.2-6.3,3.3-14.2,3.3c-7.8,0-14.2-1.1-14.2-3.3c0-5.7,6.3-10.3,14.2-10.3
		C246.4,114.8,252.8,119.5,252.8,125.2z"/>
	<path class="st20" d="M219.3,145.3c0,2.2-6.3,3.3-14.2,3.3c-7.8,0-14.2-1.1-14.2-3.3c0-5.7,6.3-10.3,14.2-10.3
		C213,134.9,219.3,139.5,219.3,145.3z"/>
	<path class="st20" d="M271.5,147.5c0,2.2-6.3,3.3-14.2,3.3c-7.8,0-14.2-1.1-14.2-3.3c0-5.7,6.3-10.3,14.2-10.3
		C265.2,137.2,271.5,141.8,271.5,147.5z"/>
	<path class="st20" d="M175.4,154.8c-0.1,2.2-6.4,3.1-14.3,2.9c-7.8-0.3-14.1-1.5-14-3.8c0.2-5.7,6.7-10.1,14.5-9.9
		C169.4,144.3,175.6,149.1,175.4,154.8z"/>
	<path class="st20" d="M161.2,131.4c-0.1,2.2-6.4,3.1-14.3,2.9c-7.8-0.3-14.1-1.5-14-3.8c0.2-5.7,6.7-10.1,14.5-9.9
		C155.2,120.9,161.4,125.7,161.2,131.4z"/>
</g>
</svg>
