<?xml version="1.0" standalone="no"?>
<!DOCTYPE svg PUBLIC "-//W3C//DTD SVG 20010904//EN"
 "http://www.w3.org/TR/2001/REC-SVG-20010904/DTD/svg10.dtd">
<svg version="1.0" xmlns="http://www.w3.org/2000/svg"
 width="837.000000pt" height="837.000000pt" viewBox="0 0 837.000000 837.000000"
 preserveAspectRatio="xMidYMid meet">
<metadata>
Created by potrace 1.11, written by Peter Selinger 2001-2013
</metadata>
<g transform="translate(0.000000,837.000000) scale(0.100000,-0.100000)"
fill="#000000" stroke="none">
<path d="M3866 7799 c-227 -35 -287 -84 -306 -249 l-9 -82 -62 -57 c-39 -36
-60 -62 -55 -69 4 -7 30 -12 62 -12 64 0 79 -11 79 -60 0 -27 5 -37 23 -45 28
-12 28 -15 -8 -60 -60 -75 -52 -118 24 -123 49 -3 54 -11 31 -52 -21 -36 -18
-59 8 -70 12 -5 16 -9 10 -9 -15 -1 -18 -57 -3 -66 6 -3 10 -32 10 -64 0 -45
4 -62 20 -76 23 -21 125 -38 149 -26 9 5 39 11 68 13 46 4 52 3 62 -19 6 -12
28 -42 50 -66 l40 -43 -16 -50 c-10 -31 -17 -94 -18 -171 -2 -66 -6 -131 -10
-143 -4 -11 -2 -27 4 -33 7 -9 2 -33 -15 -82 -52 -142 -65 -190 -89 -338 -42
-253 -64 -302 -151 -343 -42 -20 -84 -58 -196 -177 -285 -303 -368 -381 -418
-394 -80 -21 -162 -88 -215 -178 -10 -16 -14 -15 -65 8 -63 29 -88 25 -110
-21 -15 -32 -15 -32 -96 -32 -116 0 -178 -21 -211 -71 -31 -47 -28 -58 44
-145 27 -32 53 -72 57 -87 7 -31 58 -67 94 -67 13 0 40 11 60 25 33 22 47 25
132 25 52 0 101 -4 109 -9 22 -14 -23 -139 -63 -173 -24 -22 -31 -36 -32 -65
-1 -53 -192 -623 -216 -647 -12 -11 -18 -26 -15 -38 3 -10 -4 -46 -15 -79 -16
-48 -24 -59 -37 -54 -131 52 -284 89 -433 105 -104 11 -301 13 -335 4 -28 -8
-30 -38 -4 -56 18 -13 12 -15 -57 -25 -259 -39 -527 -173 -729 -366 -223 -213
-362 -474 -414 -775 -108 -635 243 -1268 841 -1515 494 -205 1050 -108 1460
254 192 169 351 430 414 680 21 84 22 86 43 72 27 -18 59 -9 75 20 21 37 17
441 -5 550 -40 196 -120 381 -234 540 -114 157 -291 325 -440 417 -29 17 -53
35 -53 39 0 23 43 128 56 138 11 8 15 21 12 38 -3 14 0 32 6 40 10 13 116 -92
651 -646 352 -364 643 -672 647 -683 3 -12 7 -64 7 -116 1 -52 6 -137 11 -188
8 -86 7 -95 -11 -113 -10 -10 -29 -19 -42 -19 -13 0 -27 -4 -33 -9 -12 -12
-124 -32 -136 -25 -5 3 -14 1 -21 -4 -7 -5 -48 -15 -92 -22 -99 -15 -149 -35
-169 -65 -22 -33 -20 -114 4 -177 11 -29 20 -62 20 -74 0 -12 10 -32 23 -46
27 -29 108 -43 186 -32 l47 6 -4 -38 c-7 -58 9 -64 167 -64 75 0 142 4 150 9
9 6 12 25 10 65 -2 31 -3 56 -3 56 1 0 41 7 90 16 114 20 110 20 172 -4 85
-33 192 -18 512 72 68 20 124 34 125 33 0 -1 15 -31 32 -67 56 -111 134 -220
233 -323 207 -216 440 -346 733 -409 136 -29 388 -31 522 -4 191 38 372 113
535 221 106 70 292 259 368 373 136 205 212 422 231 661 8 101 1 283 -14 350
-5 23 -2 28 27 36 45 14 47 44 8 163 -143 439 -430 749 -854 922 -207 85 -390
115 -636 107 -271 -9 -480 -71 -686 -202 l-52 -33 -68 101 c-38 56 -106 156
-152 222 -81 118 -82 121 -71 155 7 19 20 44 30 56 12 12 19 35 19 58 0 46 47
205 66 225 7 8 28 20 45 25 42 14 70 54 76 108 l5 44 67 0 c62 -1 72 3 154 49
124 70 177 118 177 159 0 18 -5 37 -12 44 -10 10 -1 24 39 65 63 65 89 116
105 206 20 119 -16 254 -105 389 -25 37 -47 83 -50 102 -5 34 -83 262 -126
368 -59 146 -193 395 -294 547 -150 224 -599 617 -841 736 -89 43 -147 55
-199 41 -29 -8 -38 -7 -51 7 -20 22 -20 35 -1 51 8 7 20 31 27 54 7 22 20 47
30 54 10 7 18 20 18 28 0 8 10 14 23 14 49 0 50 6 44 181 -6 161 -21 263 -62
404 -22 75 -95 152 -171 180 -57 21 -290 30 -388 14z m-244 -541 c-16 -16 -26
14 -17 50 l8 27 10 -33 c7 -23 7 -36 -1 -44z m746 -1733 c96 -142 185 -248
284 -337 135 -123 163 -152 218 -230 37 -53 47 -74 38 -80 -16 -10 -276 -93
-558 -179 -523 -158 -766 -288 -825 -442 -15 -40 -16 -53 -6 -93 17 -67 74
-182 136 -275 34 -51 48 -78 37 -75 -9 3 -177 24 -372 47 -195 23 -358 45
-362 48 -11 10 14 81 28 81 24 0 36 37 25 76 -8 31 -4 52 35 160 24 69 44 134
44 144 0 30 -32 40 -132 40 -51 0 -150 3 -220 7 -105 5 -131 9 -148 25 -25 23
-25 34 -1 47 29 16 161 26 161 13 0 -20 43 -52 71 -52 15 0 35 8 45 18 15 14
38 17 153 18 267 1 271 2 271 75 0 50 -15 79 -40 79 -17 0 -18 3 -8 26 9 19
36 37 96 65 45 21 136 69 200 108 255 151 421 290 485 407 21 38 76 114 122
169 47 55 99 126 116 158 17 33 34 55 39 50 4 -4 34 -48 68 -98z m-80 -1407
c-24 -29 -56 -68 -71 -86 l-27 -33 -12 26 c-16 36 11 71 88 112 32 18 60 33
62 33 2 0 -16 -24 -40 -52z m924 -250 c-13 -46 -35 -96 -47 -113 -27 -37 -37
-63 -26 -70 5 -3 7 -15 4 -26 -5 -19 -11 -21 -47 -16 -23 3 -108 14 -189 23
l-148 17 43 24 c24 13 129 73 233 133 105 59 193 108 196 109 4 1 -5 -36 -19
-81z m-1812 -134 l405 -48 76 -80 76 -80 6 -211 c3 -115 11 -255 16 -310 6
-55 22 -217 37 -360 14 -143 29 -288 33 -322 4 -35 7 -63 6 -63 -2 0 -1027
1059 -1151 1190 l-81 85 45 129 45 128 41 -5 c23 -3 223 -27 446 -53z m1494
-179 c109 -13 200 -26 202 -27 3 -4 -123 -408 -129 -414 -2 -2 -81 84 -176
191 l-171 195 20 40 c12 24 28 40 38 40 9 0 106 -11 216 -25z m450 -304 l126
-184 -43 -35 c-23 -19 -83 -77 -133 -128 l-92 -94 -17 28 c-10 15 -42 57 -72
94 l-54 67 66 213 c82 264 74 243 84 232 5 -5 65 -92 135 -193z m-3385 -713
l-1 -523 -44 160 c-111 406 -226 846 -222 850 7 8 176 33 226 34 l42 1 -1
-522z m186 507 c54 -8 102 -18 107 -23 6 -6 -158 -638 -241 -927 l-20 -70 0
518 -1 517 28 0 c15 0 72 -7 127 -15z m4205 -466 c0 -443 -1 -480 -17 -477
-15 3 -42 97 -263 924 0 1 105 18 170 28 14 2 44 4 68 5 l42 1 0 -481z m235
457 c33 -7 59 -17 58 -22 0 -5 -51 -193 -111 -419 -61 -225 -115 -429 -122
-452 -6 -24 -15 -43 -20 -43 -6 0 -10 180 -10 481 l0 481 73 -7 c40 -4 100
-13 132 -19z m-4795 -521 c72 -269 133 -499 136 -510 3 -11 -114 187 -260 440
-146 253 -266 463 -266 466 0 15 253 114 257 100 1 -3 61 -226 133 -496z
m4376 36 c63 -239 118 -439 121 -444 3 -5 -5 -7 -17 -5 -19 2 -68 81 -256 406
l-232 402 51 27 c29 14 86 38 127 54 68 25 76 26 82 11 5 -10 60 -212 124
-451z m-3756 422 c36 -14 69 -29 73 -33 9 -8 -34 -128 -107 -300 -34 -82 -345
-643 -353 -636 -1 0 13 57 32 126 53 201 225 843 231 863 7 22 25 19 124 -20z
m4353 13 c34 -13 86 -35 115 -50 49 -25 52 -28 41 -49 -11 -20 -459 -799 -463
-804 -1 -1 -7 1 -14 6 -15 9 227 921 245 921 7 0 41 -11 76 -24z m-5125 -554
l263 -457 -376 375 -376 375 48 44 c53 49 153 120 168 120 6 0 128 -205 273
-457z m4283 176 c89 -156 169 -294 177 -308 9 -14 11 -20 5 -15 -8 9 -363 525
-387 564 -9 13 16 41 35 41 4 0 80 -127 170 -282z m1115 232 c38 -27 86 -64
107 -82 l37 -33 -340 -340 c-249 -249 -341 -335 -345 -323 -4 10 79 164 227
421 128 224 236 406 239 407 3 0 37 -22 75 -50z m-4357 -19 c36 -27 77 -61 91
-76 l24 -26 -318 -317 c-195 -195 -301 -294 -273 -256 157 209 318 494 368
652 13 39 27 72 32 72 5 0 39 -22 76 -49z m3121 -233 c297 -431 297 -417 -1
-120 l-264 262 45 40 c25 21 50 39 56 40 6 0 80 -100 164 -222z m-1136 156
c21 -31 58 -76 82 -101 53 -52 60 -41 -81 -133 -64 -42 -91 -55 -93 -45 -2 8
6 69 18 137 12 68 24 140 27 161 3 20 7 37 8 37 1 0 19 -25 39 -56z m-3154
-420 c206 -207 364 -369 350 -361 -14 8 -218 126 -455 262 -236 136 -434 251
-439 255 -13 13 139 220 162 220 4 0 176 -169 382 -376z m1431 222 c24 -35 36
-63 31 -68 -5 -5 -211 -126 -458 -269 l-449 -259 375 375 375 376 43 -48 c24
-26 61 -75 83 -107z m2879 -150 l305 -305 -45 -3 c-43 -4 -62 6 -372 185
l-328 189 21 30 c15 21 20 39 16 62 -4 28 2 41 41 89 25 32 48 57 51 57 3 0
143 -137 311 -304z m1500 157 l50 -71 -412 -239 c-257 -148 -416 -235 -420
-228 -4 6 134 152 329 347 l337 337 33 -37 c18 -20 55 -69 83 -109z m-5883
-380 c226 -131 411 -239 409 -240 -3 -3 -997 265 -1003 270 -8 8 25 102 64
185 l34 72 42 -25 c23 -13 227 -132 454 -262z m1603 195 c38 -84 67 -165 59
-172 -2 -2 -141 -40 -309 -85 -168 -44 -395 -105 -505 -135 -110 -30 -201 -53
-202 -53 -2 3 901 525 910 526 5 1 26 -36 47 -81z m4374 25 c23 -47 76 -186
76 -200 0 -2 -5 -3 -12 -3 -7 0 -213 -54 -458 -120 -246 -66 -450 -120 -454
-120 -41 0 60 66 404 265 223 129 407 235 410 235 3 0 19 -26 34 -57z m-1772
-116 c156 -90 297 -171 313 -180 25 -13 26 -16 10 -17 -11 -1 -65 -5 -120 -9
l-100 -9 -225 60 c-124 32 -242 63 -262 69 l-37 9 13 43 c32 105 86 195 118
197 4 0 134 -74 290 -163z m-4305 -241 c274 -73 507 -136 518 -139 11 -2 -225
-5 -524 -6 l-543 -1 7 73 c9 104 28 207 39 207 2 0 228 -60 503 -134z m4101
77 l215 -58 -169 -12 c-93 -6 -199 -14 -235 -17 l-67 -6 8 38 c4 20 11 54 14
75 4 20 10 37 13 37 3 0 103 -26 221 -57z m2088 -135 l7 -88 -482 0 c-565 0
-575 2 -318 71 89 24 297 80 462 124 l300 81 12 -50 c7 -28 16 -90 19 -138z
m-4400 122 c6 -30 14 -90 17 -132 l7 -78 -528 1 c-290 1 -520 3 -512 5 370
104 970 262 985 261 16 -2 22 -13 31 -57z m1736 5 c-3 -24 1 -42 12 -54 28
-31 11 -48 -56 -55 -33 -4 -62 -5 -64 -3 -2 2 3 26 11 53 12 43 21 53 57 71
24 12 43 22 43 22 1 1 -1 -15 -3 -34z m-236 -91 c-3 -9 -6 -20 -6 -25 0 -18
-28 -9 -33 10 -3 13 1 21 12 24 30 8 33 7 27 -9z m1528 -30 c11 -4 12 -9 4
-18 -9 -9 -23 -10 -57 -2 -45 10 -45 11 -16 17 43 9 51 10 69 3z m-87 -40 c86
-23 100 -29 88 -40 -11 -12 -96 -14 -467 -13 l-453 1 220 23 c121 13 276 30
345 38 69 8 134 15 145 16 11 1 66 -11 122 -25z m-4327 -113 c-58 -16 -285
-77 -504 -136 -312 -83 -401 -104 -407 -94 -8 14 -24 104 -34 202 l-6 57 528
-1 528 0 -105 -28z m1405 -23 c-11 -92 -27 -193 -34 -204 -4 -8 -145 26 -446
107 -242 65 -465 125 -495 133 -50 13 -9 15 463 15 l518 1 -6 -52z m2900 45
c-724 -104 -850 -120 -857 -110 -4 7 -8 36 -8 65 l0 52 448 -1 c246 -1 434 -4
417 -6z m1485 -30 c0 -34 -27 -224 -33 -229 -2 -2 -560 147 -884 235 -24 7
-43 16 -43 21 0 6 179 10 480 10 l480 0 0 -37z m-2627 -61 c12 -17 23 -15 46
9 l19 20 3 -44 c4 -43 3 -46 -25 -50 -24 -3 -30 1 -38 25 -5 15 -14 28 -19 28
-5 0 -9 7 -9 15 0 9 -7 18 -15 21 -18 7 -20 35 -2 53 10 10 14 4 22 -26 6 -21
14 -44 18 -51z m-2288 -68 c264 -70 482 -129 484 -131 11 -8 -90 -253 -104
-253 -7 0 -855 489 -880 508 l-20 14 20 -5 c11 -2 236 -62 500 -133z m-786
121 c-3 -2 -203 -119 -445 -259 l-439 -254 -27 52 c-31 58 -83 194 -77 200 5
5 958 263 978 265 8 0 12 -1 10 -4z m-319 -380 c-206 -206 -378 -375 -382
-375 -9 0 -125 146 -150 188 l-17 29 332 192 c183 105 388 224 457 265 69 41
127 74 130 75 3 1 -164 -168 -370 -374z m1461 -152 c9 -9 -60 -114 -123 -186
l-33 -38 -375 376 -375 375 449 -259 c247 -143 453 -264 457 -268z m4044 407
c248 -66 455 -122 462 -125 14 -5 -9 -79 -59 -188 -24 -51 -35 -66 -47 -62 -9
4 -197 111 -418 238 -345 199 -435 257 -395 257 4 0 210 -54 457 -120z m-850
96 c-11 -7 -114 -67 -230 -134 l-210 -121 -223 -56 c-123 -31 -226 -54 -229
-51 -3 2 -15 33 -28 68 l-23 64 311 84 c511 136 601 159 627 160 24 0 24 0 5
-14z m-3375 -748 c0 -8 -148 -127 -187 -150 l-29 -17 -249 432 c-137 238 -255
443 -264 457 -8 14 153 -141 357 -345 205 -203 372 -373 372 -377z m-918 700
c-11 -18 -122 -211 -247 -428 -125 -217 -234 -405 -242 -418 -14 -22 -14 -22
-44 -5 -17 10 -67 47 -111 82 l-80 64 368 368 c203 203 370 369 372 369 2 0
-5 -15 -16 -32z m88 -503 l0 -525 -67 0 c-62 1 -198 21 -207 31 -3 4 28 121
134 514 16 61 53 199 82 308 29 108 54 197 55 197 2 0 3 -236 3 -525z m4174
444 c-60 -61 -44 -54 -279 -115 -11 -3 57 39 150 93 107 63 173 95 177 89 4
-6 -17 -36 -48 -67z m819 -159 c224 -129 407 -239 407 -243 0 -13 -75 -119
-118 -167 l-41 -45 -340 339 c-289 289 -364 371 -322 354 4 -2 191 -109 414
-238z m-5166 -267 c-73 -271 -135 -494 -138 -498 -14 -14 -254 87 -247 104 6
18 512 890 514 888 2 -1 -57 -224 -129 -494z m328 47 c64 -239 125 -463 135
-497 l18 -62 -52 -11 c-28 -7 -90 -14 -138 -17 l-88 -6 1 524 c0 288 2 520 4
514 2 -5 56 -206 120 -445z m180 -6 l253 -439 -47 -24 c-47 -25 -202 -84 -206
-79 -1 2 -21 75 -44 163 -55 210 -203 760 -218 810 -3 11 -2 17 1 14 4 -4 121
-204 261 -445z m3191 365 c-142 -38 -262 -69 -266 -69 -9 0 -20 50 -11 51 3 0
116 20 251 43 135 24 254 44 265 44 11 0 -97 -30 -239 -69z m1644 -659 c-26
-25 -74 -64 -108 -88 l-61 -43 -54 93 c-247 422 -426 741 -421 750 4 6 160
-142 348 -328 l342 -339 -46 -45z m-900 696 c0 -18 -27 -46 -45 -46 -7 0 -21
-3 -31 -7 -10 -3 0 10 22 30 43 40 54 45 54 23z m40 -16 c0 -5 -5 -10 -11 -10
-5 0 -7 5 -4 10 3 6 8 10 11 10 2 0 4 -4 4 -10z m429 -419 c128 -222 231 -404
229 -406 -24 -21 -237 -109 -245 -101 -9 9 -250 922 -246 929 3 5 11 3 18 -5
6 -7 116 -195 244 -417z m-272 313 c28 -105 106 -395 174 -648 27 -99 47 -181
45 -183 -9 -9 -164 -33 -212 -33 l-54 0 0 481 c0 522 3 549 47 383z m-77 -394
l0 -470 -67 0 c-65 1 -197 21 -209 32 -3 3 48 203 112 444 108 407 127 464
156 464 4 0 8 -211 8 -470z m-94 389 c-88 -334 -218 -815 -222 -818 -6 -6
-142 46 -200 77 l-52 27 217 375 c149 258 224 379 241 387 13 7 26 11 27 9 2
-2 -3 -27 -11 -57z m-1241 -58 c14 -50 31 -104 39 -120 l15 -28 -113 -31 c-62
-18 -116 -32 -119 -32 -10 0 15 43 31 53 6 4 12 15 12 22 0 8 4 15 9 15 15 0
39 77 44 138 1 12 5 22 10 22 12 0 8 40 -5 41 -7 1 1 4 17 8 17 4 31 6 33 5 1
-1 14 -43 27 -93z m953 -273 c-115 -200 -211 -365 -213 -366 -6 -6 -119 74
-168 119 l-48 44 270 270 c264 263 295 288 358 294 6 1 -83 -162 -199 -361z
m-208 67 l-244 -244 -25 22 c-13 12 -52 60 -87 106 l-63 85 171 99 c163 94
179 101 317 137 80 21 153 39 161 39 8 1 -95 -109 -230 -244z m-305 70 c-60
-36 -115 -65 -121 -65 -11 0 -41 57 -33 64 5 4 241 65 254 65 6 0 -39 -29
-100 -64z"/>
</g>
</svg>
