<svg version="1.1" xmlns="http://www.w3.org/2000/svg" xmlns:xlink="http://www.w3.org/1999/xlink" x="0px" y="0px" viewBox="0 0 400 120" style="enable-background:new 0 0 400 120;" id="ByTalJhsG">
    <style xmlns="http://www.w3.org/1999/xhtml">
        @-webkit-keyframes HkbGapgJhsM_Animation{92.50%{opacity: 1;}95%{opacity: 0;}95.83%{opacity: 0;}100%{opacity: 1;}}@keyframes HkbGapgJhsM_Animation{92.50%{opacity: 1;}95%{opacity: 0;}95.83%{opacity: 0;}100%{opacity: 1;}}@-webkit-keyframes HkbGapgJhsM_rJ80lkhsG_Animation{25.83%{-webkit-transform: translate(0px, 0px);transform: translate(0px, 0px);}32.50%{-webkit-transform: translate(0px, 0px);transform: translate(0px, 0px);}68.33%{-webkit-transform: translate(171px, -39px);transform: translate(171px, -39px);}95%{-webkit-transform: translate(171px, -39px);transform: translate(171px, -39px);}95.83%{-webkit-transform: translate(0px, 0px);transform: translate(0px, 0px);}0%{-webkit-transform: translate(0px, 0px);transform: translate(0px, 0px);}100%{-webkit-transform: translate(0px, 0px);transform: translate(0px, 0px);}}@keyframes HkbGapgJhsM_rJ80lkhsG_Animation{25.83%{-webkit-transform: translate(0px, 0px);transform: translate(0px, 0px);}32.50%{-webkit-transform: translate(0px, 0px);transform: translate(0px, 0px);}68.33%{-webkit-transform: translate(171px, -39px);transform: translate(171px, -39px);}95%{-webkit-transform: translate(171px, -39px);transform: translate(171px, -39px);}95.83%{-webkit-transform: translate(0px, 0px);transform: translate(0px, 0px);}0%{-webkit-transform: translate(0px, 0px);transform: translate(0px, 0px);}100%{-webkit-transform: translate(0px, 0px);transform: translate(0px, 0px);}}@-webkit-keyframes rktGTpgJ2oG_B1_0xy2oz_Animation{0%{-webkit-transform: translate(0px, 0px);transform: translate(0px, 0px);}6.67%{-webkit-transform: translate(0px, 0px);transform: translate(0px, 0px);}25.83%{-webkit-transform: translate(-196px, 0px);transform: translate(-196px, 0px);}32.50%{-webkit-transform: translate(-196px, 0px);transform: translate(-196px, 0px);}68.33%{-webkit-transform: translate(-25px, -39px);transform: translate(-25px, -39px);}74.17%{-webkit-transform: translate(-25px, -39px);transform: translate(-25px, -39px);}92.50%{-webkit-transform: translate(0px, 0px);transform: translate(0px, 0px);}}@keyframes rktGTpgJ2oG_B1_0xy2oz_Animation{0%{-webkit-transform: translate(0px, 0px);transform: translate(0px, 0px);}6.67%{-webkit-transform: translate(0px, 0px);transform: translate(0px, 0px);}25.83%{-webkit-transform: translate(-196px, 0px);transform: translate(-196px, 0px);}32.50%{-webkit-transform: translate(-196px, 0px);transform: translate(-196px, 0px);}68.33%{-webkit-transform: translate(-25px, -39px);transform: translate(-25px, -39px);}74.17%{-webkit-transform: translate(-25px, -39px);transform: translate(-25px, -39px);}92.50%{-webkit-transform: translate(0px, 0px);transform: translate(0px, 0px);}}#ByTalJhsG *{-webkit-animation-duration: 4s;animation-duration: 4s;-webkit-animation-iteration-count: infinite;animation-iteration-count: infinite;-webkit-animation-timing-function: cubic-bezier(0, 0, 1, 1);animation-timing-function: cubic-bezier(0, 0, 1, 1);transform-box: fill-box;-webkit-transform-origin: 50% 50%;transform-origin: 50% 50%;}#S1M6agknjf{fill: #666666;}#H1Eaaeynof{fill: #333333;}#HkU6pl13jf{fill: #CCCCCC;}#rkdT6l1hjG{fill: #FF6666;}#SJq66xJnoG{fill: #FFFF66;}#H12pTl12iG{fill: #66FF66;}#rkappek2oz{fill: #666666;}#B1ATTg1hjz{fill: #999999;}#ry1xaplk3sf{fill: #999999;}#Bkgx66xy2jf{fill: #999999;}#S1be6peyhiM{fill: #999999;}#S1fx6axJhoz{fill: #999999;}#SJQep6lJhoG{fill: #999999;}#B14eTaxk3jz{fill: #999999;}#rJUl66xk3if{fill: #66FF66;}#BJDgaTx12oM{fill: #999999;}#BJdl6Tgk2jz{fill: #666666;}#B1Yx6agkhsM{fill: #999999;}#SJiga6e1hoG{fill: #666666;}#Byhl6Te1noG{fill: #999999;}#SJCgpTx1noz{fill: #CCCCCC;}#Syxba6eknsz{fill: #FF6666;}#HyG-p6x12sM{fill: #FFFF66;}#BkNWppxy2oG{fill: #66FF66;}#H1BWpTeJ3sM{fill: #999999;}#rJIb6al12jG{fill: #333333;}#r1PZppeknsM{fill: #999999;}#BJY-a6lyhiG{fill: #FFFFFF;}#ByhZp6ekniM{fill: url(#S1EQPiSCjsz_1_);}#HkkGpTgknsz{fill: #3399CC;}#HJxMTply3if{fill: #3399CC;}#SkHMTpg13sz{fill: #666666;}#Hk8M6plk2sM{fill: #666666;}#ryvMTTlkniM{fill: #666666;}#rkOM6Tl1noG{fill: #666666;}#r19GpTey2oG{fill: #FFFFFF;}#rktGTpgJ2oG_B1_0xy2oz{-webkit-animation-name: rktGTpgJ2oG_B1_0xy2oz_Animation;animation-name: rktGTpgJ2oG_B1_0xy2oz_Animation;-webkit-transform-origin: 50% 50%;transform-origin: 50% 50%;-webkit-transform: translate(0px, 0px);transform: translate(0px, 0px);}#HkbGapgJhsM_rJ80lkhsG{-webkit-animation-name: HkbGapgJhsM_rJ80lkhsG_Animation;animation-name: HkbGapgJhsM_rJ80lkhsG_Animation;-webkit-transform-origin: 50% 50%;transform-origin: 50% 50%;-webkit-transform: translate(0px, 0px);transform: translate(0px, 0px);}#HkbGapgJhsM{-webkit-animation-name: HkbGapgJhsM_Animation;animation-name: HkbGapgJhsM_Animation;-webkit-transform-origin: 50% 50%;transform-origin: 50% 50%;opacity: 1;}
    </style>
    <g id="S1g6axk2jf">
        <g id="B1b66gk2sM">
            <path id="S1M6agknjf" d="M321,105h-64V85h68v16C325,103.2,323.2,105,321,105z"/>
            <g id="ryQppxk3sM">
                <rect id="H1Eaaeynof" x="75" y="24" width="90" height="6"/>
                <g id="ryHp6xyhif">
                    <path id="HkU6pl13jf" d="M161,16c1.7,0,3,1.3,3,3v82c0,1.7-1.3,3-3,3H79c-1.7,0-3-1.3-3-3V19c0-1.7,1.3-3,3-3H161&#10;&#9;&#9;&#9;&#9;&#9; M161,15H79c-2.2,0-4,1.8-4,4v82c0,2.2,1.8,4,4,4h82c2.2,0,4-1.8,4-4V19C165,16.8,163.2,15,161,15L161,15z"/>
                </g>
                <g id="ryDppg12if">
                    <circle id="rkdT6l1hjG" cx="159.5" cy="19.5" r="1.5"/>
                </g>
                <g id="HkK6pl1niG">
                    <circle id="SJq66xJnoG" cx="154.5" cy="19.5" r="1.5"/>
                </g>
                <g id="SJoaTxJnsG">
                    <circle id="H12pTl12iG" cx="149.5" cy="19.5" r="1.5"/>
                </g>
                <rect id="rkappek2oz" x="86" y="34" width="68" height="5"/>
                <rect id="B1ATTg1hjz" x="86" y="42" width="44" height="3"/>
                <rect id="ry1xaplk3sf" x="86" y="47" width="44" height="3"/>
                <rect id="Bkgx66xy2jf" x="86" y="52" width="44" height="3"/>
                <rect id="S1be6peyhiM" x="86" y="57" width="44" height="3"/>
                <rect id="S1fx6axJhoz" x="133" y="47" width="21" height="8"/>
                <rect id="SJQep6lJhoG" x="133" y="42" width="21" height="3"/>
                <rect id="B14eTaxk3jz" x="133" y="57" width="21" height="3"/>
                <g id="HJHxTaek3sM">
                    <rect id="rJUl66xk3if" x="142" y="94" width="12" height="3"/>
                </g>
                <rect id="BJDgaTx12oM" x="128" y="94" width="12" height="3"/>
                <rect id="BJdl6Tgk2jz" x="86" y="63" width="68" height="6"/>
                <rect id="B1Yx6agkhsM" x="86" y="69" width="68" height="23"/>
            </g>
            <g id="rkcepaly3oz">
                <path id="SJiga6e1hoG" d="M241,105h-2c-2.2,0-4-1.8-4-4V29h6V105z"/>
                <rect id="Byhl6Te1noG" x="235" y="24" width="90" height="6"/>
                <g id="Byax6pl1nsG">
                    <path id="SJCgpTx1noz" d="M321,16c1.7,0,3,1.3,3,3v82c0,1.7-1.3,3-3,3h-82c-1.7,0-3-1.3-3-3V19c0-1.7,1.3-3,3-3H321&#10;&#9;&#9;&#9;&#9;&#9; M321,15h-82c-2.2,0-4,1.8-4,4v82c0,2.2,1.8,4,4,4h82c2.2,0,4-1.8,4-4V19C325,16.8,323.2,15,321,15L321,15z"/>
                </g>
                <g id="rkybTaey3oG">
                    <circle id="Syxba6eknsz" cx="319.5" cy="19.5" r="1.5"/>
                </g>
                <g id="Bk-Zp6l12iz">
                    <circle id="HyG-p6x12sM" cx="314.5" cy="19.5" r="1.5"/>
                </g>
                <g id="BJ7WpTe1niz">
                    <circle id="BkNWppxy2oG" cx="309.5" cy="19.5" r="1.5"/>
                </g>
                <rect id="H1BWpTeJ3sM" x="241" y="30" width="16" height="74"/>
                <rect id="rJIb6al12jG" x="257" y="30" width="67" height="55"/>
            </g>
            <rect id="r1PZppeknsM" x="310" y="31" width="13" height="21"/>
        </g>
        <g id="BkO-aTxk3oM">
            <rect id="BJY-a6lyhiG" x="27.9" y="45.1" width="22.1" height="29.9"/>
            <g id="S1cbaplk2iG">
                <g id="ryjZaalk3iz">
                    <linearGradient id="S1EQPiSCjsz_1_" gradientUnits="userSpaceOnUse" x1="115.5305" y1="-108.8069" x2="115.5305" y2="30.2079" gradientTransform="matrix(0.3309 0 0 -0.3309 0.8201 46.9958)">
                        <stop offset="0" style="stop-color:#1BA94C"/>
                        <stop offset="1" style="stop-color:#32C766"/>
                    </linearGradient>
                    <path id="ByhZp6ekniM" d="M59.8,57.7L59.8,57.7c-0.1-4.3-0.4-8.2-1-9.1c-0.5-0.8-2.8-2.5-5.7-4.3l-7.8-4.5&#10;&#9;&#9;&#9;&#9;&#9;C42.4,38.1,39.9,37,39,37c-1.1,0-4.6,1.7-8.4,3.8c-2.9,1.6-5.9,3.4-8.1,4.9c-1.7,1.2-3,2.2-3.3,2.8s-0.6,2.3-0.7,4.5l0,0&#10;&#9;&#9;&#9;&#9;&#9;c-0.2,2.8-0.3,6.4-0.2,9.7c0.1,4.2,0.4,7.9,0.9,8.8C20.4,73.8,36.4,83,39,83c1.1,0,4.5-1.6,8.1-3.6c2.9-1.6,6-3.5,8.3-5l0,0&#10;&#9;&#9;&#9;&#9;&#9;c1.8-1.2,3.1-2.3,3.4-2.8s0.6-2.2,0.7-4.4l0,0C59.8,64.4,59.9,60.9,59.8,57.7z M48.4,69.7l-3.2,2.9c-0.1,0.1-0.2,0.2-0.4,0.2&#10;&#9;&#9;&#9;&#9;&#9;s-0.3-0.1-0.4-0.2l-3-2.9c-0.2-0.1-0.3-0.4-0.2-0.7c0.1-0.2,0.3-0.2,0.4-0.2h0.9v-6.5h-6.9v7.2c0,0.3-0.2,0.5-0.5,0.5h-3.8&#10;&#9;&#9;&#9;&#9;&#9;c-0.3,0-0.5-0.2-0.5-0.5l0,0V51.2h-0.9c-0.3,0-0.5-0.2-0.5-0.5c0-0.2,0.1-0.3,0.2-0.4l3.2-2.9c0.1-0.1,0.2-0.2,0.4-0.2&#10;&#9;&#9;&#9;&#9;&#9;s0.3,0.1,0.4,0.2l3,2.9c0.2,0.1,0.3,0.4,0.2,0.7c-0.1,0.2-0.3,0.2-0.4,0.2h-0.9v6.3h6.9v-6.9c0-0.3,0.2-0.5,0.5-0.5h3.8&#10;&#9;&#9;&#9;&#9;&#9;c0.3,0,0.5,0.2,0.5,0.5l0,0v18.3h0.9c0.3,0,0.5,0.2,0.5,0.5C48.6,69.5,48.5,69.6,48.4,69.7z"/>
                </g>
            </g>
        </g>
        <g id="Sy6Zp6ey2oM">
            <g id="SJRZapgk3oG">
                <path id="HkkGpTgknsz" d="M369.5,40v34.4l-30-4.5l30,10.1l10-4.2v-31l0,0l0,0v-0.6L369.5,40z"/>
                <path id="HJxMTply3if" d="M359,45.9l-9.2,9.1l-5.5-4.2l-2.3,0.8l5.6,5.6l-5.6,5.6l2.3,0.8l5.5-4.2l0,0l9.2,9.1&#10;&#9;&#9;&#9;&#9;l5.5-2.3v-18L359,45.9z M359,52.3v9.5l-6.3-4.8L359,52.3z"/>
            </g>
        </g>
    </g>
    <g id="HkbGapgJhsM_rJ80lkhsG" data-animator-group="true" data-animator-type="0">
        <g id="HkbGapgJhsM">
            <g id="BJzzaagynjG">
                <g id="SkQMTTxJnif">
                    <g id="S1EzT6e1hiM">
                        <rect id="SkHMTpg13sz" x="88" y="71" width="32" height="3"/>
                        <rect id="Hk8M6plk2sM" x="88" y="76" width="40" height="3"/>
                        <rect id="ryvMTTlkniM" x="88" y="81" width="43" height="3"/>
                        <rect id="rkOM6Tl1noG" x="88" y="86" width="38" height="3"/>
                    </g>
                </g>
            </g>
        </g>
    </g>
    <g id="rktGTpgJ2oG_B1_0xy2oz" data-animator-group="true" data-animator-type="0">
        <g id="rktGTpgJ2oG">
            <polygon points="306.5,79.6 306.5,95.5 310.8,92.6 313,98.4 316.6,96.9 313.7,91.9 319.5,91.2 &#9;" id="r19GpTey2oG"/>
        </g>
    </g>
</svg>