<svg version="1.0" xmlns="http://www.w3.org/2000/svg" xmlns:xlink="http://www.w3.org/1999/xlink" x="0px" y="0px" viewBox="0 0 502 448" style="enable-background:new 0 0 502 448;" id="rkgJAs5sM">
    <style xmlns="http://www.w3.org/1999/xhtml">
        @-webkit-keyframes HJDSe1Rs9jG_r1ybAi9of_Animation{0%{-webkit-transform: rotate(0deg);transform: rotate(0deg);}100%{-webkit-transform: rotate(-360deg);transform: rotate(-360deg);}}@keyframes HJDSe1Rs9jG_r1ybAi9of_Animation{0%{-webkit-transform: rotate(0deg);transform: rotate(0deg);}100%{-webkit-transform: rotate(-360deg);transform: rotate(-360deg);}}@-webkit-keyframes SkX7xJRi9sG_rk2lAj9jf_Animation{0%{-webkit-transform: rotate(0deg);transform: rotate(0deg);}100%{-webkit-transform: rotate(-360deg);transform: rotate(-360deg);}}@keyframes SkX7xJRi9sG_rk2lAj9jf_Animation{0%{-webkit-transform: rotate(0deg);transform: rotate(0deg);}100%{-webkit-transform: rotate(-360deg);transform: rotate(-360deg);}}#rkgJAs5sM *{-webkit-animation-duration: 4s;animation-duration: 4s;-webkit-animation-iteration-count: infinite;animation-iteration-count: infinite;-webkit-animation-timing-function: cubic-bezier(0, 0, 1, 1);animation-timing-function: cubic-bezier(0, 0, 1, 1);transform-box: fill-box;-webkit-transform-origin: 50% 50%;transform-origin: 50% 50%;}#rkZxJRsqoz{fill: #ECC19C;}#BkzgkAscif{fill: #ECC19C;}#HymeyAo5sz{fill: #663300;stroke: none;stroke-width: 2;stroke-miterlimit: 10;}#SySgJAicjM{fill: white;stroke: #333333;stroke-miterlimit: 10;stroke-width: 0.5;stroke-linecap: round;}#BkLg1Ci9oM{fill: #603813;}#rJ_lJCs9sG{fill: none;stroke: #29ABE2;stroke-width: 1.5;stroke-linecap: round;stroke-miterlimit: 10;}#Hysl1Rj9iz{fill: none;stroke: #29ABE2;stroke-width: 1.5;stroke-linecap: round;stroke-miterlimit: 10;}#SJ3lyCoqsz{fill: #B3B3B3;}#rk6ekCj5jM{fill: #999999;}#H1-lxkCiqsz{fill: #4D4D4D;}#HyGgxk0j9sf{fill: #8C6239;}#HkQgey0ocsG{fill: #1E71AF;}#Sywelk0i9jz{fill: #B3B3B3;}#H1OlgyCoqoz{fill: #CCCCCC;}#BJKxx1Aicif{fill: #B3B3B3;}#H1qglJRi9jM{fill: #E6E6E6;}#HksgxJCjcsM{fill: none;stroke: #999999;stroke-width: 2;stroke-miterlimit: 10;}#SJAel10sciz{fill: #CCCCCC;}#H1yZekAj5iM{fill: #141414;}#rylWxJCj5jM{fill: #CCCCCC;}#HkGbxyAs5iG{fill: #1A1A1A;}#Hy4ZxkRscjG{fill: #1A1A1A;}#rkSbl1AicoM{fill: #141414;}#B1U-lJRsqsG{fill: #CCCCCC;}#SJwZlyCs9iz{fill: #141414;}#BJdZl1Rs5sf{fill: #141414;}#HkFWek0s9oz{fill: #B3B3B3;}#HJ5ZgJRi9sf{fill: #B3B3B3;}#rksbeJ0ocjf{fill: #B3B3B3;}#Hyhbx1Ri5sM{fill: #B3B3B3;}#Bypbg1As5jz{fill: #B3B3B3;}#rJCZl1Riqof{fill: #E6E6E6;}#H1kfxkRj9if{fill: #666666;}#BJgGe1Ao5jG{fill: #808080;}#HkbzxJAj9jf{fill: #8C6239;}#rkzMlkCs9jf{fill: #666666;}#ry7zxJCj5oz{fill: #4D4D4D;}#B14fxkCiqoG{fill: #BAB4B6;}#H1BMx10oqjz{fill: #CCCCCC;}#rJ8Gxy0i9oz{fill: #808080;}#BJDzgy0oqjG{fill: #8C6239;}#BJKMekAicjf{fill: #1A1A1A;}#HJqMx1Aj5sz{fill: #BAB4B6;}#HysGeJ0jqiG{fill: #CCCCCC;}#SyhGlyAj5jG{fill: #808080;}#HyJ7xkAs9jf{fill: #E6E6E6;}#HklmxJRi5oM{fill: #B3B3B3;}#BJZmgkAj5sf{fill: #CCCCCC;}#SyMQgkCi9if{fill: #B3B3B3;}#BkvXl1Co5of{fill: #EAD1B7;}#B1KXeJAjqsz{fill: #B3B3B3;}#S1smx10oqoM{fill: #333333;}#HkAXxyRj5sf{fill: #DCC3A5;}#ByeEx1Rs9sM{fill: none;stroke: #333333;stroke-miterlimit: 10;}#rJ-NekCo5oM{fill: none;stroke: #333333;stroke-miterlimit: 10;}#r1MNe10sqsM{fill: none;stroke: #333333;stroke-miterlimit: 10;}#SkX4xJAo9jz{fill: none;stroke: #333333;stroke-miterlimit: 10;}#SJ44lJRi5sM{fill: none;stroke: #333333;stroke-miterlimit: 10;}#HyrNeJCicoz{fill: none;stroke: #333333;stroke-miterlimit: 10;}#rkUVlJ0jciz{fill: none;stroke: #333333;stroke-miterlimit: 10;}#ryv4eyAiciG{fill: none;stroke: #333333;stroke-miterlimit: 10;}#H1OEx1Ajqjz{fill: none;stroke: #333333;stroke-miterlimit: 10;}#HyFElyAscoG{fill: none;stroke: #333333;stroke-miterlimit: 10;}#B154lyCjcsG{fill: none;stroke: #333333;stroke-miterlimit: 10;}#HJ2VlJAo9oM{fill: none;stroke: #808080;stroke-miterlimit: 10;}#HkT4eyAocif{fill: none;stroke: #808080;stroke-miterlimit: 10;}#Hy04lk0ocjG{fill: none;stroke: #808080;stroke-miterlimit: 10;}#rkySekCoqsf{fill: none;stroke: #808080;stroke-miterlimit: 10;}#H1gBxyAjciM{fill: none;stroke: #808080;stroke-miterlimit: 10;}#S1ZSlJCocoG{fill: none;stroke: #808080;stroke-miterlimit: 10;}#HJfSg1CociM{fill: none;stroke: #808080;stroke-miterlimit: 10;}#HyQrxkAo5oz{fill: none;stroke: #808080;stroke-miterlimit: 10;}#rkVBlyAi9oG{fill: none;stroke: #808080;stroke-miterlimit: 10;}#SyBHekRj5sG{fill: none;stroke: #808080;stroke-miterlimit: 10;}#SkLBe1Roqoz{fill: none;stroke: #808080;stroke-miterlimit: 10;}#rk9Sg1Rs9of{fill: none;stroke: #333333;stroke-miterlimit: 10;}#S1iBeJAocsf{fill: none;stroke: #333333;stroke-miterlimit: 10;}#Sy2BeyRo9jG{fill: none;stroke: #333333;stroke-miterlimit: 10;}#rJTrxkRiciz{fill: none;stroke: #333333;stroke-miterlimit: 10;}#SkCBly0o9sG{fill: none;stroke: #333333;stroke-miterlimit: 10;}#SyJUlyCs9oM{fill: none;stroke: #333333;stroke-miterlimit: 10;}#r1e8lJ0iqoM{fill: none;stroke: #333333;stroke-miterlimit: 10;}#ryb8lyAsqsz{fill: none;stroke: #333333;stroke-miterlimit: 10;}#ryM8eJAoqoM{fill: none;stroke: #333333;stroke-miterlimit: 10;}#H1mIxyCjqjG{fill: none;stroke: #333333;stroke-miterlimit: 10;}#ByNLe10sqsG{fill: none;stroke: #333333;stroke-miterlimit: 10;}#SkUIlJ0s5iM{fill: none;stroke: #808080;stroke-miterlimit: 10;}#S1D8gJ0o5jf{fill: none;stroke: #808080;stroke-miterlimit: 10;}#SJOIe10jqof{fill: none;stroke: #808080;stroke-miterlimit: 10;}#rkFIey0o5jz{fill: none;stroke: #808080;stroke-miterlimit: 10;}#rycLgy0oqjM{fill: none;stroke: #808080;stroke-miterlimit: 10;}#r1jLl1Rs9iG{fill: none;stroke: #808080;stroke-miterlimit: 10;}#SyhIeyCs9iG{fill: none;stroke: #808080;stroke-miterlimit: 10;}#HJTLlyCoqsG{fill: none;stroke: #808080;stroke-miterlimit: 10;}#ByCLlk0jcsG{fill: none;stroke: #808080;stroke-miterlimit: 10;}#BJyvgkRj5jM{fill: none;stroke: #808080;stroke-miterlimit: 10;}#H1gwgJCo5jz{fill: none;stroke: #808080;stroke-miterlimit: 10;}#HyQvl1RsqjM{fill: #EAD1B7;}#SyHvgJAsqsG{fill: #B3B3B3;}#HkPwxkCociz{fill: #333333;}#r15wl10iqjM{fill: #DCC3A5;}#H1nvl1As5iG{fill: #CCCCCC;}#rklde1Cs5sz{fill: #4D4D4D;}#rybde1Aoqoz{fill: #8C6239;}#BkMOl1Rs5iz{fill: none;stroke: #333333;stroke-width: 2;stroke-miterlimit: 10;}#BJmug1Ai9jM{fill: none;stroke: #333333;stroke-width: 2;stroke-linecap: round;stroke-miterlimit: 10;}#H1Vdx10icsf{fill: none;stroke: #333333;stroke-width: 2;stroke-linecap: round;stroke-miterlimit: 10;}#S1H_gJ0s5jM{fill: none;stroke: #333333;stroke-width: 2;stroke-linecap: round;stroke-miterlimit: 10;}#Sk8ulyAicjG{fill: none;stroke: #333333;stroke-width: 2;stroke-linecap: round;stroke-miterlimit: 10;}#HyPdlkAjqjf{fill: #10669B;}#rJddekAsqsf{fill: #808080;}#SkKdlJRs5sM{fill: #ECC19C;}#BJqdlyCicsG{fill: #ECC19C;}#S1sdgkRjcof{fill: #999999;}#SkX7xJRi9sG_rk2lAj9jf{-webkit-animation-name: SkX7xJRi9sG_rk2lAj9jf_Animation;animation-name: SkX7xJRi9sG_rk2lAj9jf_Animation;-webkit-transform-origin: 50% 50%;transform-origin: 50% 50%;-webkit-transform: rotate(0deg);transform: rotate(0deg);}#HJDSe1Rs9jG_r1ybAi9of{-webkit-animation-name: HJDSe1Rs9jG_r1ybAi9of_Animation;animation-name: HJDSe1Rs9jG_r1ybAi9of_Animation;-webkit-transform-origin: 50% 50%;transform-origin: 50% 50%;-webkit-transform: rotate(0deg);transform: rotate(0deg);}
    </style>
    <g id="SkX7xJRi9sG_rk2lAj9jf" data-animator-group="true" data-animator-type="1">
        <g id="SkX7xJRi9sG">
            <g id="B147xyRi5sf">
                <g id="B1SQlyCjqsM">
                    <g id="HJUmxkAs9iG">
                        <path d="M118,287c41.4,0,75,33.6,75,75s-33.6,75-75,75s-75-33.6-75-75S76.6,287,118,287 M118,279&#10;&#9;&#9;&#9;&#9;&#9;c-45.8,0-83,37.2-83,83s37.2,83,83,83s83-37.2,83-83S163.8,279,118,279L118,279z" id="BkvXl1Co5of"/>
                    </g>
                </g>
                <g id="rk_mgJCjcoz">
                    <path d="M118,290.1c39.7,0,71.9,32.2,71.9,71.9c0,39.7-32.2,71.9-71.9,71.9c-39.7,0-71.9-32.2-71.9-71.9&#10;&#9;&#9;&#9;&#9;C46.1,322.3,78.3,290.1,118,290.1 M118,286.1c-41.9,0-75.9,34.1-75.9,75.9s34.1,75.9,75.9,75.9s75.9-34.1,75.9-75.9&#10;&#9;&#9;&#9;&#9;S159.9,286.1,118,286.1L118,286.1z" id="B1KXeJAjqsz"/>
                </g>
                <g id="Bkq7eJ0s5jM">
                    <path d="M118,291c39.2,0,71,31.8,71,71s-31.8,71-71,71c-39.2,0-71-31.8-71-71S78.8,291,118,291 M118,289&#10;&#9;&#9;&#9;&#9;c-40.3,0-73,32.8-73,73s32.8,73,73,73s73-32.8,73-73S158.3,289,118,289L118,289z" id="S1smx10oqoM"/>
                </g>
                <g id="HJh7gJCs9if">
                    <g id="BJaXgkCsciz">
                        <path d="M118,287c41.4,0,75,33.6,75,75s-33.6,75-75,75s-75-33.6-75-75S76.6,287,118,287 M118,285&#10;&#9;&#9;&#9;&#9;&#9;c-42.5,0-77,34.5-77,77s34.5,77,77,77s77-34.5,77-77S160.5,285,118,285L118,285z" id="HkAXxyRj5sf"/>
                    </g>
                </g>
                <g id="S1J4ly0j9jM">
                    <line x1="45" y1="362.5" x2="191" y2="362.5" id="ByeEx1Rs9sM"/>
                    <line x1="45" y1="362.5" x2="191" y2="362.5" id="rJ-NekCo5oM"/>
                    <line x1="55" y1="398.7" x2="181" y2="325.9" id="r1MNe10sqsM"/>
                    <line x1="55" y1="398.7" x2="181" y2="325.9" id="SkX4xJAo9jz"/>
                    <line x1="81.6" y1="425.4" x2="154.4" y2="299.3" id="SJ44lJRi5sM"/>
                    <line x1="81.6" y1="425.4" x2="154.4" y2="299.3" id="HyrNeJCicoz"/>
                    <line x1="118.5" y1="435" x2="118.5" y2="289" id="rkUVlJ0jciz"/>
                    <line x1="118.5" y1="435" x2="118.5" y2="289" id="ryv4eyAiciG"/>
                    <line x1="154.5" y1="424.9" x2="81.7" y2="298.8" id="H1OEx1Ajqjz"/>
                    <line x1="154.5" y1="424.9" x2="81.7" y2="298.8" id="HyFElyAscoG"/>
                    <line x1="180.9" y1="398.3" x2="54.8" y2="325.5" id="B154lyCjcsG"/>
                </g>
                <g id="SyoVlyCj9jG">
                    <line x1="47.8" y1="381.2" x2="188.4" y2="343.5" id="HJ2VlJAo9oM"/>
                    <line x1="47.8" y1="381.2" x2="188.4" y2="343.5" id="HkT4eyAocif"/>
                    <line x1="66.6" y1="413.8" x2="169.6" y2="310.8" id="Hy04lk0ocjG"/>
                    <line x1="66.6" y1="413.8" x2="169.6" y2="310.8" id="rkySekCoqsf"/>
                    <line x1="99.2" y1="432.6" x2="136.9" y2="292" id="H1gBxyAjciM"/>
                    <line x1="99.2" y1="432.6" x2="136.9" y2="292" id="S1ZSlJCocoG"/>
                    <line x1="137.2" y1="432.2" x2="99.5" y2="291.6" id="HJfSg1CociM"/>
                    <line x1="137.2" y1="432.2" x2="99.5" y2="291.6" id="HyQrxkAo5oz"/>
                    <line x1="169.6" y1="413.3" x2="66.6" y2="310.4" id="rkVBlyAi9oG"/>
                    <line x1="169.6" y1="413.3" x2="66.6" y2="310.4" id="SyBHekRj5sG"/>
                    <line x1="188.2" y1="380.8" x2="47.5" y2="343.1" id="SkLBe1Roqoz"/>
                </g>
            </g>
        </g>
    </g>
    
    <g id="HJely0i5oz">
        <path d="M253.5,85.3c0,0-17.7-5-16-16.5c0.7-5,18.6-10,19.8-6.3c1.4,4.1,11.1,8.5,12,10.5S254,84.1,253.5,85.3z" id="rkZxJRsqoz"/>
        <path d="M234.1,12.8c-3.4,0.4-10,5.3-11.1,9.3c-1.1,4-4.6,5.9-5.9,9.7c-1.3,3.8,3.7,7.3-1.4,13.3&#10;&#9;&#9;c-4.2,4.9-2.3,7.8,1.2,7.3c5.4-0.8,1.7,3.2,1.2,4.8c-0.6,1.7-0.8,2.4,2.5,2.3c1.4,0,0.5,0.7-0.8,1.1c-1.3,0.3-1,2.4,0.3,4&#10;&#9;&#9;c1.3,1.7-1.9,8.8,4.1,9.1s37.4-1.4,37.9-16.7c0.5-16.3,6.6-22.7-1.6-30.5C252.2,18.7,252.7,10.6,234.1,12.8z" id="BkzgkAscif"/>
        <path d="M263.3,48.2c1,1.7,2.3,6.9,0.4,7.9s-4.4,4-6.3,0.4s-0.9-5.4-3.6-8.4s-6.3-10.8-8.8-11s-3.9,0.3-4.1,2.9&#10;&#9;&#9;s-3.1,2.4-4.3,1.8s-2.5-8.8-1.2-10.2c1.9-2.1,8.2-1.6,10.8-0.6C251.9,33.2,260.1,43.1,263.3,48.2z" id="HymeyAo5sz"/>
        <g id="ByEl1Ai5iG">
            <path d="M221.2,37.3c-0.2,0.2,0,1.8,0,1.8s3.9,0.4,5.8,0.3C228.8,39.1,224.8,33.6,221.2,37.3z" id="SySgJAicjM"/>
            <circle cx="223.9" cy="37.7" r="1.3" id="BkLg1Ci9oM"/>
            <circle cx="223.9" cy="37.7" r="0.7" id="rkweJRsqoz"/>
        </g>
        <path d="M241.6,32.8c0,0,1.9,25.3-2.6,30.7s-8.2,11.4-10.7,10.9" id="rJ_lJCs9sG"/>
        <g id="HyKe1Cjqof">
            <path d="M223.6,43c-3.3,0-4.2-1.9-4.5-3.5c0-0.2-0.1-0.4-0.1-0.5c0,0,0,0,0,0c-0.1,0.2-0.1,0.3-0.2,0.5c-0.1,0.1-0.1,0.2-0.1,0.4&#10;&#9;&#9;&#9;c-0.2,0.6-0.6,1.7-2.3,1.7c-0.3,0,0.4,0,0-0.1c-0.7-0.1-1.2-0.4-1.6-0.9c-0.7-1-0.4-2.6-0.2-3.6c0.1-0.3,0.1-0.5,0.1-0.6&#10;&#9;&#9;&#9;c0-0.1,0-0.3-0.5-0.4l-0.4-0.1l0-1.5l3,0.1c0.1,0,9.6,0.4,13.5,0.4l14.5,2.2c0,0,1.6,0,3.1,1.7c0.7,0.8,0.5,4.3,0.5,4.3l-0.7-0.2&#10;&#9;&#9;&#9;c0,0,0-3.7-2-4.3c-3-0.9-14.9-1-14.9-1l-0.6-0.1c-0.2,0-0.4,0.1-0.6,0.4c0,0.1,0,0.3,0,0.5c0,1.4,0.1,4.2-5.1,4.7&#10;&#9;&#9;&#9;C224.2,43,223.9,43,223.6,43z M219.2,35c0.1,0,4.2,0.4,2.2,0.4c-2.3-0.1-1.5,2.9-1.3,3.8c0.4,1.8,1.3,3,4.3,2.7&#10;&#9;&#9;&#9;c4.2-0.4,4.2-2.3,4.2-3.7c0-0.4,0-1.4,0-1.7c-0.1-1.1-1.1-1.1-1.1-1.1c-4.2,0-10.6-0.3-10.7-0.3l-0.1,0c-0.5,0-0.9,0.9-1,1.3&#10;&#9;&#9;&#9;c-0.1,0.4-0.4,2.7,0.1,3.4c0.2,0.3,0.5,0.4,0.9,0.5c0.3,0.1-0.4,0.1-0.2,0.1c1,0,1.1-0.4,1.3-1c0.1-0.2,0.1-0.3,0.2-0.5&#10;&#9;&#9;&#9;c0.1-0.1,0.1-0.3,0.2-0.4c0.2-0.5,0.9-3.3,0.1-3.3C216.6,35.3,219.1,35,219.2,35z" id="H1qlJCocoz"/>
        </g>
        <path d="M253.4,44.1c0,9.5-9.7,12.6-12.5,14.1" id="Hysl1Rj9iz"/>
        <path d="M206.9,32.8c2.7-3,5.7-4.3,6.4-6.3c0.9-2.6-1.6-14.7,10.9-17.5s36-6,40.5,9.3c4.5,15.3,4.2,24,4.3,33.5&#10;&#9;&#9;c0.1,4.2-20-0.5-20-5.8c0-12.5-9.4-12.2-15.7-10.4c-5.3,1.5-9.3-1.8-16.1-1.3C210.5,34.8,204,36.1,206.9,32.8z" id="SJ3lyCoqsz"/>
        <path d="M242.4,59.9c-0.1,0.5-0.6,0.8-1.1,0.6l-1.8-0.5c-0.5-0.1-0.8-0.6-0.6-1.1l0.7-2.6c0.1-0.5,0.6-0.8,1.1-0.6&#10;&#9;&#9;l1.8,0.5c0.5,0.1,0.8,0.6,0.6,1.1L242.4,59.9z" id="rk6ekCj5jM"/>
    </g>
    <g id="rJ0xy0sciz">
        <g id="Skyxl1Aj5sG">
            <g id="Skxllk0oqsM">
                <path d="M311,306.4c0,0,17.2,14.6,11.3,18.4c-5.9,3.8-49.2,29.2-52.5,26.3c-3.3-2.9-13-11.5-4.5-17.3&#10;&#9;&#9;&#9;&#9;s23.3-13,23.8-17.2C289.6,313.5,309.2,304.9,311,306.4z" id="H1-lxkCiqsz"/>
                <path d="M324.8,322.3c1.6,6.8-49.7,34.3-53,31.4c-0.5-0.4-4.9-2.7-2.6-3.4c8.8-2.9,22.6-8.8,34.7-16.2&#10;&#9;&#9;&#9;&#9;c8.8-5.4,17.8-15.9,19.1-14.5C324.7,321.2,324.6,321.3,324.8,322.3z" id="HyGgxk0j9sf"/>
            </g>
            <path d="M337.6,168.3c0,0,12.6,32.6,2.9,39.9s-102.3,10.3-89.5,27.2c8.3,11,47.9,54.2,57.2,66.3&#10;&#9;&#9;&#9;c6.7,8.7,3.7,6.6-6.7,13.3c-11.9,7.6-15.2,5.9-25.5-11.3c-14.2-23.7-51.8-43.8-64.3-77.1c-9.7-25.8,85.1-38.8,87.4-47.2&#10;&#9;&#9;&#9;C301.4,170.8,334,158.1,337.6,168.3z" id="HkQgey0ocsG"/>
        </g>
    </g>
    
    <g id="r1Nge1Rs5sG">
        <g id="rJrlx1AicoG">
            <g id="HJ8ll1Ao9iG">
                <path d="M311,347.2c0,0.4-0.4,0.8-1,0.8h-17c-0.6,0-1-0.4-1-0.8l0.7-2.1c0-0.4,0.8-1.1,1.3-1.1h15&#10;&#9;&#9;&#9;&#9;c0.6,0,1.4,0.7,1.4,1.1L311,347.2z" id="Sywelk0i9jz"/>
                <path d="M311,350.9c0,0.6-0.4,1.1-1,1.1h-17c-0.6,0-1-0.5-1-1.1v-3.3c0-0.6,0.4-1.6,1-1.6h17c0.6,0,1,1,1,1.6V350.9&#10;&#9;&#9;&#9;&#9;z" id="H1OlgyCoqoz"/>
                <circle cx="301.5" cy="349" r="2.3" id="BJKxx1Aicif"/>
                <path d="M273.3,375.7c-2.4-0.1-7.1,3-3.1,8.2c2.6,3.5,7.9,0.5,8.2-1.3c0.5-2.5-1.4-3.2,4.7-9.2&#10;&#9;&#9;&#9;&#9;c7.9-7.8,14.4-17.2,16.7-18.6c2.3-1.4,6.3-6,2.5-7.6c-3.8-1.6-3,3-5.1,5.1C295,354.4,278.4,375.9,273.3,375.7z" id="H1qglJRi9jM"/>
            </g>
            <path d="M258.4,387.8c1.7,8.8,2.1,19,32.4,10.4c31.3-8.9,56.8-14.4,76.2-19.9c14-4,25.6-6,25.6-17&#10;&#9;&#9;&#9;c-2.3-23.5-26.3-2.4-119.4-2.4C248.9,359,257.1,380.7,258.4,387.8z" id="HksgxJCjcsM"/>
        </g>
        <g id="Hk2xg1Rjcsz">
        <g id="HJDSe1Rs9jG_r1ybAi9of" data-animator-group="true" data-animator-type="1">
        <g id="HJDSe1Rs9jG">
            <g id="SJdBeJCjqiG">
                <g id="ByKSgJ0j5jf">
                    <line x1="308" y1="362.5" x2="454" y2="362.5" id="rk9Sg1Rs9of"/>
                    <line x1="308" y1="362.5" x2="454" y2="362.5" id="S1iBeJAocsf"/>
                    <line x1="318" y1="398.7" x2="444" y2="325.9" id="Sy2BeyRo9jG"/>
                    <line x1="318" y1="398.7" x2="444" y2="325.9" id="rJTrxkRiciz"/>
                    <line x1="344.6" y1="425.4" x2="417.4" y2="299.3" id="SkCBly0o9sG"/>
                    <line x1="344.6" y1="425.4" x2="417.4" y2="299.3" id="SyJUlyCs9oM"/>
                    <line x1="381.5" y1="435" x2="381.5" y2="289" id="r1e8lJ0iqoM"/>
                    <line x1="381.5" y1="435" x2="381.5" y2="289" id="ryb8lyAsqsz"/>
                    <line x1="417.5" y1="424.9" x2="344.7" y2="298.8" id="ryM8eJAoqoM"/>
                    <line x1="417.5" y1="424.9" x2="344.7" y2="298.8" id="H1mIxyCjqjG"/>
                    <line x1="443.9" y1="398.3" x2="317.8" y2="325.5" id="ByNLe10sqsG"/>
                </g>
                <g id="H1SLey0j5iG">
                    <line x1="310.8" y1="381.2" x2="451.4" y2="343.5" id="SkUIlJ0s5iM"/>
                    <line x1="310.8" y1="381.2" x2="451.4" y2="343.5" id="S1D8gJ0o5jf"/>
                    <line x1="329.6" y1="413.8" x2="432.6" y2="310.8" id="SJOIe10jqof"/>
                    <line x1="329.6" y1="413.8" x2="432.6" y2="310.8" id="rkFIey0o5jz"/>
                    <line x1="362.2" y1="432.6" x2="399.9" y2="292" id="rycLgy0oqjM"/>
                    <line x1="362.2" y1="432.6" x2="399.9" y2="292" id="r1jLl1Rs9iG"/>
                    <line x1="400.2" y1="432.2" x2="362.5" y2="291.6" id="SyhIeyCs9iG"/>
                    <line x1="400.2" y1="432.2" x2="362.5" y2="291.6" id="HJTLlyCoqsG"/>
                    <line x1="432.6" y1="413.3" x2="329.6" y2="310.4" id="ByCLlk0jcsG"/>
                    <line x1="432.6" y1="413.3" x2="329.6" y2="310.4" id="BJyvgkRj5jM"/>
                    <line x1="451.2" y1="380.8" x2="310.5" y2="343.1" id="H1gwgJCo5jz"/>
                </g>
                <g id="rk-ve1Co5jG">
                    <g id="ryMwxk0jqjf">
                        <path d="M381,287c41.4,0,75,33.6,75,75s-33.6,75-75,75c-41.4,0-75-33.6-75-75S339.6,287,381,287 M381,279&#10;&#9;&#9;&#9;&#9;&#9;c-45.8,0-83,37.2-83,83s37.2,83,83,83s83-37.2,83-83S426.8,279,381,279L381,279z" id="HyQvl1RsqjM"/>
                    </g>
                </g>
                <g id="rJNwgy0ocjM">
                    <path d="M381,290.1c39.7,0,71.9,32.2,71.9,71.9c0,39.7-32.2,71.9-71.9,71.9c-39.7,0-71.9-32.2-71.9-71.9&#10;&#9;&#9;&#9;&#9;C309.1,322.3,341.3,290.1,381,290.1 M381,286.1c-41.9,0-75.9,34.1-75.9,75.9s34.1,75.9,75.9,75.9s75.9-34.1,75.9-75.9&#10;&#9;&#9;&#9;&#9;S422.9,286.1,381,286.1L381,286.1z" id="SyHvgJAsqsG"/>
                </g>
                <g id="SkIvx1Ro5oz">
                    <path d="M381,291c39.2,0,71,31.8,71,71s-31.8,71-71,71s-71-31.8-71-71S341.8,291,381,291 M381,289&#10;&#9;&#9;&#9;&#9;c-40.3,0-73,32.8-73,73s32.8,73,73,73s73-32.8,73-73S421.3,289,381,289L381,289z" id="HkPwxkCociz"/>
                </g>
                <g id="HJdwx1Aoqjf">
                    <g id="S1Yve1AsqoG">
                        <path d="M381,287c41.4,0,75,33.6,75,75s-33.6,75-75,75c-41.4,0-75-33.6-75-75S339.6,287,381,287 M381,285&#10;&#9;&#9;&#9;&#9;&#9;c-42.5,0-77,34.5-77,77s34.5,77,77,77s77-34.5,77-77S423.5,285,381,285L381,285z" id="r15wl10iqjM"/>
                    </g>
                </g>
                <g id="BkoveJAscsG">
                    <path d="M381.7,374h-1.4l-1-1.6l-1.5,1.6l-1.4-0.4l-0.4-2l-1.9,0.9l-1.2-0.8l0.3-2l-2.1,0.3l-0.9-1.2l0.9-1.9&#10;&#9;&#9;&#9;&#9;l-2-0.4l-0.4-1.4l1.7-1.5l-1.6-1v-1.4l1.6-1l-1.6-1.5l0.4-1.4l2-0.4l-0.9-1.9l0.8-1.2l2,0.3l-0.3-2.1l1.2-0.9l1.9,0.9l0.4-2&#10;&#9;&#9;&#9;&#9;l1.4-0.4l1.5,1.7l1-1.6h1.4l1,1.6l1.5-1.6l1.4,0.4l0.4,2l1.9-0.9l1.2,0.8l-0.3,2l2.1-0.3l0.9,1.2l-0.9,1.9l2,0.4l0.4,1.4&#10;&#9;&#9;&#9;&#9;l-1.7,1.5l1.6,1v1.4l-1.6,1l1.6,1.5l-0.4,1.4l-2,0.4l0.9,1.9l-0.8,1.2l-2-0.3l0.3,2.1l-1.2,0.9l-1.9-0.9l-0.4,2l-1.4,0.4&#10;&#9;&#9;&#9;&#9;l-1.5-1.7L381.7,374z" id="H1nvl1As5iG"/>
                </g>
            </g>
        </g>
    </g>
            <g id="Hk6eeJAj9jz">
                <path d="M274.8,402.6l1.8-0.1l0.6-1.2l0.9,1l1.7-0.4l0.4-1.3l1,0.9l1.6-0.6l0.2-1.4l1.2,0.7l1.5-0.9l0-1.4l1.2,0.5&#10;&#9;&#9;&#9;&#9;l1.4-1.1L288,396l1.3,0.3l1.2-1.3l-0.4-1.3l1.4,0.1l1-1.5l-0.6-1.2l1.4-0.1l0.8-1.6l-0.8-1.1l1.3-0.3l0.5-1.7l-1-1l1.3-0.5&#10;&#9;&#9;&#9;&#9;l0.3-1.8l-0.9-0.8l1.3-0.6v-1.8l-1.3-0.6l1-0.8l-0.3-1.8l-1.3-0.5l0.9-1l-0.5-1.7l-1.3-0.3l0.8-1.1l-0.8-1.6l-1.4-0.1l0.6-1.2&#10;&#9;&#9;&#9;&#9;l-1-1.5l-1.4,0.1l0.4-1.3l-1.2-1.3L288,366l0.2-1.3l-1.4-1.1l-1.2,0.5l0-1.4l-1.5-0.9l-1.2,0.7l-0.2-1.4l-1.6-0.6l-1,0.9&#10;&#9;&#9;&#9;&#9;l-0.4-1.3l-1.7-0.4l-0.9,1l-0.6-1.2l-1.8-0.1l-0.7,1.1l-0.7-1.1l-1.8,0.1l-0.6,1.2l-0.9-1l-1.7,0.4l-0.4,1.3l-1-0.9l-1.6,0.6&#10;&#9;&#9;&#9;&#9;l-0.2,1.4l-1.2-0.7l-1.5,0.9l0,1.4l-1.2-0.5l-1.4,1.1l0.2,1.3l-1.3-0.3l-1.2,1.3l0.4,1.3l-1.4-0.1l-1,1.5l0.6,1.2l-1.4,0.1&#10;&#9;&#9;&#9;&#9;l-0.8,1.6l0.8,1.1l-1.3,0.3l-0.5,1.7l0.9,1l-1.3,0.5l-0.3,1.8l0.7,0.8l-1.2,0.6v1.8l1.3,0.6l-0.8,0.8l0.3,1.8l1.3,0.5l-0.9,1&#10;&#9;&#9;&#9;&#9;l0.5,1.7l1.3,0.3l-0.8,1.1l0.8,1.6l1.4,0.1l-0.6,1.2l1,1.5l1.4-0.1l-0.4,1.3l1.2,1.3l1.3-0.3l-0.2,1.3l1.4,1.1l1.2-0.5l0,1.4&#10;&#9;&#9;&#9;&#9;l1.5,0.9l1.2-0.7l0.2,1.4l1.6,0.6l1-0.9l0.4,1.3l1.7,0.4l0.9-1l0.6,1.2l1.8,0.1l0.7-1.1L274.8,402.6z" id="SJAel10sciz"/>
            </g>
            <polygon points="276,376.4 377.8,362 378.5,365 276,382 &#9;&#9;" id="H1yZekAj5iM"/>
            
            <path d="M310.9,249.5c0,0,2.8-9.3,4.4-14.1c0.5-1.6,2-3.6,4.7-3.9c1.5-0.2,2.9-4.6,2.8-6.2l5.9,0.8&#10;&#9;&#9;&#9;c0,0-0.4,2.9-0.5,4.4c-0.2,1.9-1,6.8-5.3,7.1c-1.3,0.1-2.7,1.6-2.7,1.6l-3.8,12.2L310.9,249.5z" id="rylWxJCj5jM"/>
            <g id="rkWWxy0icoz">
                <path d="M191.3,312.7c20,27.4,14.8,58,14.3,63.6c-0.3,3.3-5.8,4.9-6.1-3.1c-0.3-7.1,2.2-16.5-1.3-31.5&#10;&#9;&#9;&#9;&#9;c-3-13.4-19.2-41.7-41-52.8c-18.2-9.2-40.8-9.8-45.2-9.4c-1.9,0.2-4.2-1.6-4.7-2.3c-1.6-2.6,3.2-2.2,10.5-2.2&#10;&#9;&#9;&#9;&#9;C158.3,275.1,179.5,296.6,191.3,312.7z" id="HkGbxyAs5iG"/>
            </g>
            
            <g id="BJQZlJAoqjM">
                <path d="M466.7,341.8c-1.7-5.4-8.6-35.6-37.6-53.2c-8.2-5-18.8-10.3-31.8-12.7c-0.3-0.1-0.6-0.2-0.9-0.3&#10;&#9;&#9;&#9;&#9;c-5.6-0.7-36-6.7-63.9,12.6c-16.5,11.3-38.5,34.5-39.5,69.9c-0.2,7.3,0.2,12.6,2.8,11c0.7-0.4,2.5-2.8,2.4-4.6&#10;&#9;&#9;&#9;&#9;c-0.3-4.4,1.2-23.9,11-41.8c9.7-18,30-32.7,44.6-38.3c4.5-1.4,10-2.8,16-3.7c10.9-1.4,19-0.9,25.8,0.1c22.2,4.6,44,21.9,51.2,32&#10;&#9;&#9;&#9;&#9;c8.9,12.5,10.3,22.1,13.2,28.6C463.3,348.5,467.7,345,466.7,341.8z" id="Hy4ZxkRscjG"/>
            </g>
            <polygon points="312.2,260.4 379.9,359 377,361.4 311.1,265.8 &#9;&#9;" id="rkSbl1AicoM"/>
            <path d="M163.3,210.4l17.8,0.4c0,0,5-0.4,3.5,3.7s-5.6,15.7-5.6,15.7l-4.5-1.4l3-8.8c0,0,1.2-2.9-3.1-2.9&#10;&#9;&#9;&#9;s-8.4,0-8.4,0s-1.7-0.3-4.9,2.3c-3.1,2.4-8-0.9-8-4.1C153.1,209.8,156.8,210.4,163.3,210.4z" id="B1U-lJRsqsG"/>
            <polygon points="176.2,240.9 308,257.1 309.2,253.5 315.2,255.3 313,262.4 275.7,382.9 270.5,377.5 306.3,262.8 &#10;&#9;&#9;&#9;174.3,247 168.7,263.1 274.8,372.8 276,383.3 166.4,269.8 164.9,274.2 158.6,273.1 172.5,231.7 178.6,233.6 &#9;&#9;" id="SJwZlyCs9iz"/>
            <path d="M162.2,281.9l-1.9,6.2l-5.6,16l-2.3,6.7c0,0-7.4,15.4-10.3,20.2c-4.8,7.8-21.4,29.8-21.4,29.8l-1.8-1.3&#10;&#9;&#9;&#9;c0,0,14.3-22.3,18.5-30.7c2.9-5.7,10.6-24.8,10.6-24.8l10.6-31.3l6.1,1.8L162.2,281.9z" id="BJdZl1Rs5sf"/>
            <path d="M165.6,275.6c-0.2,0.5-0.7,0.8-1.1,0.7L158,274c-0.4-0.2-0.6-0.7-0.5-1.2l0.3-0.9c0.2-0.5,0.7-0.8,1.1-0.7&#10;&#9;&#9;&#9;l6.4,2.2c0.4,0.2,0.6,0.7,0.5,1.2L165.6,275.6z" id="HkFWek0s9oz"/>
            <path d="M180,234.6c-0.2,0.6-0.8,0.9-1.3,0.8l-7-2.5c-0.5-0.2-0.7-0.8-0.5-1.4l0.4-1.1c0.2-0.6,0.8-0.9,1.3-0.8l7,2.5&#10;&#9;&#9;&#9;c0.5,0.2,0.7,0.8,0.5,1.4L180,234.6z" id="HJ5ZgJRi9sf"/>
            <path d="M179.7,232.2c-0.2,0.6-0.7,1-1,0.8l-5.3-1.9c-0.4-0.1-0.5-0.7-0.3-1.3l0.4-1.1c0.2-0.6,0.7-1,1-0.8l5.3,1.9&#10;&#9;&#9;&#9;c0.4,0.1,0.5,0.7,0.3,1.3L179.7,232.2z" id="rksbeJ0ocjf"/>
            <path d="M316.4,255.2c-0.2,0.6-0.7,1-1.1,0.9l-6.5-2c-0.4-0.1-0.7-0.7-0.5-1.3l0.3-1.1c0.2-0.6,0.7-1,1.1-0.9l6.5,2&#10;&#9;&#9;&#9;c0.4,0.1,0.7,0.7,0.5,1.3L316.4,255.2z" id="Hyhbx1Ri5sM"/>
            <path d="M316.4,252.9c-0.2,0.6-0.6,1-1,0.9l-5.4-1.6c-0.4-0.1-0.5-0.7-0.3-1.3l0.3-1.1c0.2-0.6,0.6-1,1-0.9l5.4,1.6&#10;&#9;&#9;&#9;c0.4,0.1,0.5,0.7,0.3,1.3L316.4,252.9z" id="Bypbg1As5jz"/>
            <path d="M167.1,204.1c0,0-16.1-0.6-13.4,3.4c1.7,2.5,7.6,4.7,7,7.4c-0.7,3.3-4.6,4.2-6.3,1.4c-0.9-1.6-3-3.2-4.1-4.7&#10;&#9;&#9;&#9;c-4.7-5.8-5.2-5.6-2.2-10c2.8-4,19.4-3,19.4-3L167.1,204.1z" id="rJCZl1Riqof"/>
            <path d="M168.4,194.3c1-0.2,2.9,0.4,3.4,2.2c0.3,1.2,0.8,7.7,0,9.9c-0.7,2-6.9,2.4-7.1-4.1&#10;&#9;&#9;&#9;C164.4,195.9,166.6,194.6,168.4,194.3z" id="H1kfxkRj9if"/>
            <path d="M174.6,196.7c-0.6-0.7-3-1-4.4-0.9s-2.1,2.4-2,5.3s1.9,5.9,3.2,5.2c1.3-0.7,2.7-0.5,3.4-1.8&#10;&#9;&#9;&#9;S175.2,197.4,174.6,196.7z" id="BJgGe1Ao5jG"/>
            <path d="M196,204c0,0.5-0.4,1-1,1h-21c-0.6,0-1.5-1.6-1.5-4c0-2.1,1-4,1.5-4h21c0.6,0,1,0.5,1,1.1V204z" id="HkbzxJAj9jf"/>
            <path d="M196.9,201c0,2.1-0.7,4-1.8,4s-2.1-1.9-2.1-4s1-4,2.1-4S196.9,198.9,196.9,201z" id="rkzMlkCs9jf"/>
            <path d="M196.5,201c0,1.5-0.4,2.9-1,2.9s-1.2-1.4-1.2-2.9s0.6-2.9,1.2-2.9C196.1,198.1,196.5,199.5,196.5,201z" id="ry7zxJCj5oz"/>
            <circle cx="381" cy="362" r="4.7" id="B14fxkCiqoG"/>
            <polygon points="379.3,365 377.7,362 379.3,359 382.7,359 384.3,362 382.7,365 &#9;&#9;" id="H1BMx10oqjz"/>
            <circle cx="381.1" cy="362.2" r="1.9" id="rJ8Gxy0i9oz"/>
            <path d="M307.1,213.1c6.5,0.9,16.8,1.9,23.5,1.1s18.7-4.3,21.3,0.2c2.7,4.5-5.4,7.9-11.5,11.8s-11.7,2.2-19.9-1.4&#10;&#9;&#9;&#9;s-8.8-4.4-15.9-3.8c-7.1,0.6-14.4,2.3-12-2.5S302,212.4,307.1,213.1z" id="BJDzgy0oqjG"/>
            <g id="SJ_GgJAi9oz">
                <path d="M273.6,360.5c3.5,0,8.4,0.9,12.1,3.4l88.4-9.3l-3.5-4.9c-8.3,0.4-90.6,6.8-97,6.8&#10;&#9;&#9;&#9;&#9;c-13.4,0-24.3,10.9-24.3,24.3c0,5.1,2.7,9.2,4.9,13.2l3-1.9c-1.8-3-3.8-7.5-3.8-11.3C253.4,369.6,262.4,360.5,273.6,360.5z" id="BJKMekAicjf"/>
            </g>
            <circle cx="118" cy="362" r="4.7" id="HJqMx1Aj5sz"/>
            <polygon points="116.3,365 114.7,362 116.3,359 119.7,359 121.3,362 119.7,365 &#9;&#9;" id="HysGeJ0jqiG"/>
            <circle cx="118.1" cy="362.2" r="1.9" id="SyhGlyAj5jG"/>
        </g>
        
        <g id="BJaGgy0j9jz">
            <g id="ByAfekCjqjG">
                <path d="M268.4,380.2c0-2.4,3.2-7,8.3-2.9c3.4,2.7,0.2,7.9-1.6,8.2c-2.6,0.4-3.1-1.5-9.4,4.4&#10;&#9;&#9;&#9;&#9;c-8,7.6-17.7,13.9-19.1,16.1s-6.2,6.1-7.7,2.3s3.1-2.9,5.3-5C246.4,401.4,268.5,385.4,268.4,380.2z" id="HyJ7xkAs9jf"/>
                <path d="M251,405.2c0,0.4-0.4,0.8-1,0.8h-17c-0.6,0-1-0.4-1-0.8l0.7-2.1c0-0.4,0.8-1.1,1.3-1.1h15&#10;&#9;&#9;&#9;&#9;c0.6,0,1.4,0.7,1.4,1.1L251,405.2z" id="HklmxJRi5oM"/>
                <path d="M251,408.9c0,0.6-0.4,1.1-1,1.1h-17c-0.6,0-1-0.5-1-1.1v-3.3c0-0.6,0.4-1.6,1-1.6h17c0.6,0,1,1,1,1.6V408.9&#10;&#9;&#9;&#9;&#9;z" id="BJZmgkAj5sf"/>
                <circle cx="241.5" cy="407" r="2.3" id="SyMQgkCi9if"/>
            </g>
        </g>
    </g>
    
    
    <g id="Sk6DxJ0ocif">
        <g id="rkRweyRs9iz">
            <g id="H1yOxkCjcsM">
                <path d="M272.3,373.9c0,0,10.6,19.9,3.7,21.3c-6.9,1.4-56.5,9.1-58.4,5.2s-7.9-15.4,2.2-17.7&#10;&#9;&#9;&#9;&#9;c10.1-2.3,26.4-3.5,28.4-7.2C249.8,372.6,271.1,371.8,272.3,373.9z" id="rklde1Cs5sz"/>
                <path d="M279.3,393.7c-1,7-58.8,13.7-60.8,9.8c-0.3-0.6-3.6-4.3-1.1-4.1c9.3,0.5,24.2,0.1,38.2-2.4&#10;&#9;&#9;&#9;&#9;c10.1-1.8,22.4-8.3,23.1-6.5C279.6,392.7,279.4,392.7,279.3,393.7z" id="rybde1Aoqoz"/>
                <path d="M252.2,380.1c1.4,2.3-3.3,8.5-4.6,6.1c-1.4-2.3,1.1-9,2.3-9.7C251.1,375.7,250.8,377.7,252.2,380.1z" id="BkMOl1Rs5iz"/>
                <path d="M241.5,379c0,0,3.5,2.8,3.8,5.7" id="BJmug1Ai9jM"/>
                <path d="M245.5,377c0,0,3.5,2.8,3.8,5.7" id="H1Vdx10icsf"/>
                <path d="M236.5,380c0,0,3.5,2.8,3.8,5.7" id="S1H_gJ0s5jM"/>
                <path d="M231.5,381c0,0,3.5,2.8,3.8,5.7" id="Sk8ulyAicjG"/>
            </g>
            <path d="M340.5,159.3c0,0,29.1,22.9,17,45.8c-5.7,10.7-48.9,36-67.7,45.8c-10.2,5.3-18.4,15.4-12.4,32.3&#10;&#9;&#9;&#9;c4.5,12.5-4.2,34.3-4.2,48.8c0.1,21.4,2.8,30.1,3.1,36.5c0.6,15.3-0.2,10.3-14.4,10.6s-16.5,3.5-16.7-16.5&#10;&#9;&#9;&#9;c-0.2-22.7-12.2-98.3-5.8-109c23.7-39.9,55.7-62.8,66.5-68.6C313.9,180.5,336.9,149,340.5,159.3z" id="HyPdlkAjqjf"/>
            <path d="M267,66.3c12.7,1,40.4,25.5,51.8,37.9s25.7,41.7,28.6,53.4c1.3,5,5.7,11.6,2.6,12.8&#10;&#9;&#9;&#9;c-5.2,2-14.4,8.4-23.4,7.8c-7.1-0.5-17.6,8.2-23.1,8.1c-9.3-0.2-9-10.2-20.1-18.9c-12.2-9.6-21.2-23.8-27-32.7&#10;&#9;&#9;&#9;c-9.9-15.1-20.8-38.7-11.2-56.3C248.8,71.9,262.4,66,267,66.3z" id="rJddekAsqsf"/>
            <path d="M195.2,192.3c-2.9-2.4-3.4-7.7-4.6-7.5c-6.5,1-13.3,7.6-14.7,12.2c-0.5,1.5,0.6,5.8,1.1,7.4&#10;&#9;&#9;&#9;c0.4,1.3,4.2,2.4,4.4,0.6c1.1,1,3.8,1.5,4,0c1.3,1.1,4.7,1.6,3.9-0.9c1.5,1.1,4.4,1.4,3.4-1.3&#10;&#9;&#9;&#9;C191.5,199.3,195.2,192.3,195.2,192.3z" id="SkKdlJRs5sM"/>
            <path d="M266.4,103.8c0.3,8.7-1.6,15.3-11.1,36.3c-3,6.7-12.3,14.3-14.1,19.2c-4.6,12.5-39.8,32-46.9,33.8&#10;&#9;&#9;&#9;s-10.3-5.9-4-8.1c7.6-2.7,28.1-31.8,36.1-34.2c9.4-2.8,7.3-25.6,12.5-36.7c5.5-11.7,2.2-19.9,12.8-20.9&#10;&#9;&#9;&#9;C259,92.4,266.1,96.3,266.4,103.8z" id="BJqdlyCicsG"/>
            <path d="M251,77.7c6.4-3.8,12.1-3.9,16.8,0.7c5.9,5.9,4.7,16.6,3.5,27.5c-0.6,5.6-31.9,2.2-30.5-2&#10;&#9;&#9;&#9;C242.6,98.2,242.4,82.8,251,77.7z" id="S1sdgkRjcof"/>
        </g>
    </g>
</svg>